<mxfile host="65bd71144e">
    <diagram id="9GOSIzSt5ZUlFtkNZdQf" name="Page-1">
        <mxGraphModel dx="1168" dy="566" grid="1" gridSize="10" guides="1" tooltips="1" connect="1" arrows="1" fold="1" page="1" pageScale="1" pageWidth="850" pageHeight="1100" math="0" shadow="0">
            <root>
                <mxCell id="0"/>
                <mxCell id="1" parent="0"/>
                <mxCell id="82" value="" style="shape=mxgraph.mockup.containers.marginRect;rectMarginTop=10;strokeColor=#A4C2F4;strokeWidth=1;dashed=0;rounded=1;arcSize=5;recursiveResize=0;fillColor=none;" parent="1" vertex="1">
                    <mxGeometry x="440" y="360" width="160" height="100" as="geometry"/>
                </mxCell>
                <mxCell id="83" value="Infrastructure" style="shape=rect;strokeColor=none;fillColor=#a4c2f4;strokeWidth=1;dashed=0;rounded=1;arcSize=20;fontColor=#ffffff;fontSize=17;spacing=2;spacingTop=-2;align=left;autosize=1;spacingLeft=4;resizeWidth=0;resizeHeight=0;perimeter=none;" parent="82" vertex="1">
                    <mxGeometry x="5" width="130" height="30" as="geometry"/>
                </mxCell>
                <mxCell id="5" value="&lt;span style=&quot;color: rgb(255, 255, 255);&quot;&gt;DB Facade&lt;/span&gt;" style="rounded=1;whiteSpace=wrap;html=1;fillColor=#a4c2f4ff;strokeColor=none;" parent="82" vertex="1">
                    <mxGeometry x="23.5" y="40" width="113" height="40" as="geometry"/>
                </mxCell>
                <mxCell id="77" value="" style="shape=mxgraph.mockup.containers.marginRect;rectMarginTop=10;strokeColor=#FFB366;strokeWidth=1;dashed=0;rounded=1;arcSize=5;recursiveResize=0;fillColor=none;" parent="1" vertex="1">
                    <mxGeometry x="440" y="30" width="160" height="210" as="geometry"/>
                </mxCell>
                <mxCell id="78" value="Domain" style="shape=rect;strokeColor=none;fillColor=#FFB366;strokeWidth=1;dashed=0;rounded=1;arcSize=20;fontColor=#ffffff;fontSize=17;spacing=2;spacingTop=-2;align=left;autosize=1;spacingLeft=4;resizeWidth=0;resizeHeight=0;perimeter=none;" parent="77" vertex="1">
                    <mxGeometry x="5" width="80" height="30" as="geometry"/>
                </mxCell>
                <mxCell id="18" value="&lt;font color=&quot;#ffffff&quot;&gt;BankAccount&lt;/font&gt;" style="rounded=1;whiteSpace=wrap;html=1;fillColor=#FFB366;strokeColor=none;" parent="77" vertex="1">
                    <mxGeometry x="20" y="50" width="120" height="40" as="geometry"/>
                </mxCell>
                <mxCell id="103" style="edgeStyle=none;html=1;entryX=0.5;entryY=1;entryDx=0;entryDy=0;strokeColor=#808080;" edge="1" parent="77" source="86" target="18">
                    <mxGeometry relative="1" as="geometry"/>
                </mxCell>
                <mxCell id="86" value="&lt;font color=&quot;#ffffff&quot;&gt;BankAccountService&lt;br&gt;&lt;/font&gt;" style="rounded=1;whiteSpace=wrap;html=1;fillColor=#FFB366;strokeColor=none;" parent="77" vertex="1">
                    <mxGeometry x="20" y="130" width="120" height="40" as="geometry"/>
                </mxCell>
                <mxCell id="75" value="" style="shape=mxgraph.mockup.containers.marginRect;rectMarginTop=10;strokeColor=#93C47D;strokeWidth=1;dashed=0;rounded=1;arcSize=5;recursiveResize=0;fillColor=none;" parent="1" vertex="1">
                    <mxGeometry x="40" y="30" width="160" height="290" as="geometry"/>
                </mxCell>
                <mxCell id="76" value="User Interface" style="shape=rect;strokeColor=none;fillColor=#93c47d;strokeWidth=1;dashed=0;rounded=1;arcSize=20;fontColor=#ffffff;fontSize=17;spacing=2;spacingTop=-2;align=left;autosize=1;spacingLeft=4;resizeWidth=0;resizeHeight=0;perimeter=none;" parent="75" vertex="1">
                    <mxGeometry x="5" width="130" height="30" as="geometry"/>
                </mxCell>
                <mxCell id="68" value="&lt;span style=&quot;color: rgb(255, 255, 255);&quot;&gt;Deposit&lt;/span&gt;&lt;span style=&quot;color: rgb(255, 255, 255);&quot;&gt;Dto&lt;/span&gt;" style="rounded=1;whiteSpace=wrap;html=1;fillColor=#93c47dff;strokeColor=none;" parent="75" vertex="1">
                    <mxGeometry x="20" y="210" width="120" height="40" as="geometry"/>
                </mxCell>
                <mxCell id="2" value="&lt;span style=&quot;color: rgb(255, 255, 255);&quot;&gt;Deposit&lt;/span&gt;&lt;font color=&quot;#ffffff&quot;&gt;Controller&lt;/font&gt;" style="rounded=1;whiteSpace=wrap;html=1;fillColor=#93c47dff;strokeColor=none;" parent="75" vertex="1">
                    <mxGeometry x="20" y="50" width="120" height="40" as="geometry"/>
                </mxCell>
                <mxCell id="40" style="edgeStyle=none;jumpSize=6;html=1;strokeWidth=1;strokeColor=#808080;" parent="75" source="2" target="68" edge="1">
                    <mxGeometry relative="1" as="geometry"/>
                </mxCell>
                <mxCell id="80" value="" style="shape=mxgraph.mockup.containers.marginRect;rectMarginTop=10;strokeColor=#EA9999;strokeWidth=1;dashed=0;rounded=1;arcSize=5;recursiveResize=0;fillColor=none;" parent="1" vertex="1">
                    <mxGeometry x="240" y="30" width="160" height="290" as="geometry"/>
                </mxCell>
                <mxCell id="81" value="Application" style="shape=rect;strokeColor=none;fillColor=#ea9999;strokeWidth=1;dashed=0;rounded=1;arcSize=20;fontColor=#ffffff;fontSize=17;spacing=2;spacingTop=-2;align=left;autosize=1;spacingLeft=4;resizeWidth=0;resizeHeight=0;perimeter=none;" parent="80" vertex="1">
                    <mxGeometry x="5" width="110" height="30" as="geometry"/>
                </mxCell>
                <mxCell id="3" value="&lt;span style=&quot;color: rgb(255, 255, 255);&quot;&gt;Deposit&lt;/span&gt;&lt;font color=&quot;#ffffff&quot;&gt;Request&lt;/font&gt;" style="rounded=1;whiteSpace=wrap;html=1;fillColor=#ea9999ff;strokeColor=none;" parent="80" vertex="1">
                    <mxGeometry x="20" y="50" width="120" height="40" as="geometry"/>
                </mxCell>
                <mxCell id="16" value="&lt;span style=&quot;color: rgb(255, 255, 255);&quot;&gt;Deposit&lt;/span&gt;&lt;font color=&quot;#ffffff&quot;&gt;Response&lt;/font&gt;" style="rounded=1;whiteSpace=wrap;html=1;fillColor=#ea9999ff;strokeColor=none;" parent="80" vertex="1">
                    <mxGeometry x="20" y="210" width="120" height="40" as="geometry"/>
                </mxCell>
                <mxCell id="110" style="edgeStyle=none;html=1;entryX=0.5;entryY=1;entryDx=0;entryDy=0;strokeColor=#808080;" edge="1" parent="80" source="17" target="3">
                    <mxGeometry relative="1" as="geometry"/>
                </mxCell>
                <mxCell id="111" style="edgeStyle=none;html=1;entryX=0.5;entryY=0;entryDx=0;entryDy=0;strokeColor=#808080;" edge="1" parent="80" source="17" target="16">
                    <mxGeometry relative="1" as="geometry"/>
                </mxCell>
                <mxCell id="17" value="&lt;span style=&quot;color: rgb(255, 255, 255);&quot;&gt;Deposit&lt;/span&gt;&lt;font color=&quot;#ffffff&quot;&gt;Interactor&lt;/font&gt;" style="rounded=1;whiteSpace=wrap;html=1;fillColor=#ea9999ff;strokeColor=none;" parent="80" vertex="1">
                    <mxGeometry x="20" y="130" width="120" height="40" as="geometry"/>
                </mxCell>
                <mxCell id="104" style="edgeStyle=none;html=1;strokeColor=#808080;" edge="1" parent="1" source="17" target="86">
                    <mxGeometry relative="1" as="geometry"/>
                </mxCell>
                <mxCell id="105" style="edgeStyle=none;html=1;entryX=0;entryY=0.5;entryDx=0;entryDy=0;strokeColor=#808080;" edge="1" parent="1" source="68" target="16">
                    <mxGeometry relative="1" as="geometry"/>
                </mxCell>
                <mxCell id="112" style="edgeStyle=none;html=1;entryX=0;entryY=0.5;entryDx=0;entryDy=0;strokeColor=#808080;" edge="1" parent="1" source="17" target="18">
                    <mxGeometry relative="1" as="geometry">
                        <Array as="points">
                            <mxPoint x="420" y="180"/>
                            <mxPoint x="420" y="100"/>
                        </Array>
                    </mxGeometry>
                </mxCell>
                <mxCell id="116" style="edgeStyle=none;html=1;strokeColor=#808080;" edge="1" parent="1" source="2" target="3">
                    <mxGeometry relative="1" as="geometry"/>
                </mxCell>
                <mxCell id="117" style="edgeStyle=none;html=1;entryX=0;entryY=0.5;entryDx=0;entryDy=0;strokeColor=#808080;" edge="1" parent="1" source="2" target="17">
                    <mxGeometry relative="1" as="geometry">
                        <Array as="points">
                            <mxPoint x="220" y="100"/>
                            <mxPoint x="220" y="180"/>
                        </Array>
                    </mxGeometry>
                </mxCell>
                <mxCell id="118" style="edgeStyle=none;html=1;entryX=0;entryY=0.5;entryDx=0;entryDy=0;strokeColor=#808080;" edge="1" parent="1" source="17" target="5">
                    <mxGeometry relative="1" as="geometry">
                        <Array as="points">
                            <mxPoint x="420" y="180"/>
                            <mxPoint x="420" y="420"/>
                        </Array>
                    </mxGeometry>
                </mxCell>
                <mxCell id="119" style="edgeStyle=none;html=1;entryX=0;entryY=0.5;entryDx=0;entryDy=0;strokeColor=#808080;" edge="1" parent="1" source="86" target="5">
                    <mxGeometry relative="1" as="geometry">
                        <Array as="points">
                            <mxPoint x="520" y="300"/>
                            <mxPoint x="420" y="300"/>
                            <mxPoint x="420" y="420"/>
                        </Array>
                    </mxGeometry>
                </mxCell>
            </root>
        </mxGraphModel>
    </diagram>
</mxfile>
